<svg width="192" height="67" viewBox="0 0 192 67" fill="none" xmlns="http://www.w3.org/2000/svg">
<path d="M93.0329 16.7672C92.5302 12.7526 94.0657 4.32649 104.916 2.91882C104.925 7.17827 101.863 15.4571 93.0329 16.7672Z" fill="#076653"/>
<path d="M91.0281 16.9593C88.4397 16.4138 83.5593 13.6678 85.0032 6.66154C87.6377 7.56439 92.1016 11.2221 91.0281 16.9593Z" fill="#076653"/>
<path d="M2.7 9.1C2.7 7.48 3.78 6.4 5.4 6.4C7.02 6.4 8.1 7.48 8.1 9.1C8.1 10.72 7.02 11.8 5.4 11.8C3.78 11.8 2.7 10.72 2.7 9.1ZM3.3 49V19H7.5V49H3.3ZM14.6813 33.04V49H10.4813V33.52C10.4813 24.46 16.5413 18.4 25.9013 18.4C34.9613 18.4 41.0213 24.46 41.0213 33.52V49H36.8213V33.04C36.8213 26.62 32.3213 22.3 25.7213 22.3C19.1813 22.3 14.6813 26.68 14.6813 33.04ZM43.4578 34.3C43.4578 24.82 49.6978 18.4 59.2378 18.4C68.7178 18.4 75.0178 24.64 75.0178 34V49H70.8178V43.24L70.2778 43.3V43.84C70.2778 45.94 66.4978 49.6 58.7578 49.6C49.7578 49.6 43.4578 43.42 43.4578 34.3ZM47.6578 34C47.6578 41.26 51.9178 45.64 58.9978 45.64C67.8178 45.64 70.8178 40.96 70.8178 34C70.8178 26.8 66.3778 22.3 59.2378 22.3C52.3378 22.3 47.6578 27.04 47.6578 34Z" fill="#076653"/>
<path d="M108.66 34.18H81.9C81.96 41.02 86.58 45.7 93.48 45.7C99.24 45.7 103.2 42.4 104.46 37.3H108.66C107.34 44.8 101.76 49.6 93.48 49.6C84 49.6 77.7 43.36 77.7 34C77.7 24.64 84 18.4 93.48 18.4C102.78 18.4 108.72 23.98 108.66 32.74V34.18ZM82.38 30.28H104.34C103.08 25.18 99.24 22.3 93.48 22.3C87.84 22.3 83.76 25.42 82.38 30.28ZM110.852 34.3C110.852 24.82 117.092 18.4 126.632 18.4C136.112 18.4 142.412 24.64 142.412 34V49H138.212V43.24L137.672 43.3V43.84C137.672 45.94 133.892 49.6 126.152 49.6C117.152 49.6 110.852 43.42 110.852 34.3ZM115.052 34C115.052 41.26 119.312 45.64 126.392 45.64C135.212 45.64 138.212 40.96 138.212 34C138.212 26.8 133.772 22.3 126.632 22.3C119.732 22.3 115.052 27.04 115.052 34ZM161.204 49C149.564 49 144.884 44.86 144.884 34.48V12.76H149.084V19.36H161.204V23.14H149.084V34.96C149.084 42.58 152.144 45.1 161.204 45.1V49ZM162.564 26.8C162.564 21.16 167.064 18.34 176.184 18.34C180.624 18.34 184.164 18.82 187.404 20.02V24.22C185.304 23.5 180.864 22.24 175.644 22.24C169.764 22.24 166.764 23.62 166.764 26.38C166.764 33.28 188.664 29.56 188.664 40.36C188.664 46 184.284 49.66 175.104 49.66C170.664 49.66 167.064 49.24 163.824 47.98V43.78C165.924 44.56 170.424 45.82 175.704 45.82C181.584 45.82 184.464 43.6 184.464 40.84C184.464 33.94 162.564 37.6 162.564 26.8Z" fill="#076653"/>
</svg>
