<svg width="49" height="49" viewBox="0 0 49 49" fill="none" xmlns="http://www.w3.org/2000/svg">
<path d="M14.7 39.2L24.5 31.7275L34.3 39.2L30.625 27.0725L40.425 20.09H28.42L24.5 7.35L20.58 20.09H8.575L18.375 27.0725L14.7 39.2ZM24.5 49C21.1108 49 17.9258 48.3569 14.945 47.0706C11.9642 45.7844 9.37125 44.0388 7.16625 41.8338C4.96125 39.6288 3.21563 37.0358 1.92938 34.055C0.643125 31.0742 0 27.8892 0 24.5C0 21.1108 0.643125 17.9258 1.92938 14.945C3.21563 11.9642 4.96125 9.37125 7.16625 7.16625C9.37125 4.96125 11.9642 3.21563 14.945 1.92938C17.9258 0.643125 21.1108 0 24.5 0C27.8892 0 31.0742 0.643125 34.055 1.92938C37.0358 3.21563 39.6288 4.96125 41.8338 7.16625C44.0388 9.37125 45.7844 11.9642 47.0706 14.945C48.3569 17.9258 49 21.1108 49 24.5C49 27.8892 48.3569 31.0742 47.0706 34.055C45.7844 37.0358 44.0388 39.6288 41.8338 41.8338C39.6288 44.0388 37.0358 45.7844 34.055 47.0706C31.0742 48.3569 27.8892 49 24.5 49Z" fill="#076653"/>
</svg>
