<svg width="26" height="26" viewBox="0 0 26 26" fill="none" xmlns="http://www.w3.org/2000/svg">
<path d="M8.66699 13.0003H17.3337M14.0837 17.3337C14.0837 17.932 13.5986 18.417 13.0003 18.417C12.402 18.417 11.917 17.932 11.917 17.3337C11.917 16.7354 12.402 16.2503 13.0003 16.2503C13.5986 16.2503 14.0837 16.7354 14.0837 17.3337ZM14.0837 8.66699C14.0837 9.2653 13.5986 9.75033 13.0003 9.75033C12.402 9.75033 11.917 9.2653 11.917 8.66699C11.917 8.06868 12.402 7.58366 13.0003 7.58366C13.5986 7.58366 14.0837 8.06868 14.0837 8.66699ZM23.8337 13.0003C23.8337 18.9834 18.9834 23.8337 13.0003 23.8337C7.01724 23.8337 2.16699 18.9834 2.16699 13.0003C2.16699 7.01724 7.01724 2.16699 13.0003 2.16699C18.9834 2.16699 23.8337 7.01724 23.8337 13.0003Z" stroke="#757575" stroke-width="2" stroke-linecap="round" stroke-linejoin="round"/>
</svg>
