<svg width="20" height="24" viewBox="0 0 20 24" fill="none" xmlns="http://www.w3.org/2000/svg">
<path d="M12.1663 1.16699H3.49967C2.92504 1.16699 2.37394 1.39527 1.96761 1.80159C1.56128 2.20792 1.33301 2.75902 1.33301 3.33366V20.667C1.33301 21.2416 1.56128 21.7927 1.96761 22.1991C2.37394 22.6054 2.92504 22.8337 3.49967 22.8337H16.4997C17.0743 22.8337 17.6254 22.6054 18.0317 22.1991C18.4381 21.7927 18.6663 21.2416 18.6663 20.667V7.66699M12.1663 1.16699L18.6663 7.66699M12.1663 1.16699V7.66699H18.6663M14.333 13.0837H5.66634M14.333 17.417H5.66634M7.83301 8.75033H5.66634" stroke="#757575" stroke-width="2" stroke-linecap="round" stroke-linejoin="round"/>
</svg>
