<svg width="11" height="11" viewBox="0 0 11 11" fill="none" xmlns="http://www.w3.org/2000/svg">
<path d="M3.25 8.66667L5.41667 7.01458L7.58333 8.66667L6.77083 5.98542L8.9375 4.44167H6.28333L5.41667 1.625L4.55 4.44167H1.89583L4.0625 5.98542L3.25 8.66667ZM5.41667 10.8333C4.66736 10.8333 3.96319 10.6911 3.30417 10.4068C2.64514 10.1224 2.07188 9.73646 1.58438 9.24896C1.09687 8.76146 0.710938 8.18819 0.426563 7.52917C0.142187 6.87014 0 6.16597 0 5.41667C0 4.66736 0.142187 3.96319 0.426563 3.30417C0.710938 2.64514 1.09687 2.07188 1.58438 1.58438C2.07188 1.09687 2.64514 0.710938 3.30417 0.426563C3.96319 0.142187 4.66736 0 5.41667 0C6.16597 0 6.87014 0.142187 7.52917 0.426563C8.18819 0.710938 8.76146 1.09687 9.24896 1.58438C9.73646 2.07188 10.1224 2.64514 10.4068 3.30417C10.6911 3.96319 10.8333 4.66736 10.8333 5.41667C10.8333 6.16597 10.6911 6.87014 10.4068 7.52917C10.1224 8.18819 9.73646 8.76146 9.24896 9.24896C8.76146 9.73646 8.18819 10.1224 7.52917 10.4068C6.87014 10.6911 6.16597 10.8333 5.41667 10.8333Z" fill="#EB7955"/>
</svg>
