<svg width="19" height="17" viewBox="0 0 19 17" fill="none" xmlns="http://www.w3.org/2000/svg">
<path d="M12.666 1.375H0.791016V11.6667H12.666V1.375Z" fill="#44C749" fill-opacity="0.15"/>
<path d="M12.666 5.33333H15.8327L18.2077 7.70833V11.6667H12.666V5.33333Z" fill="#44C749" fill-opacity="0.15"/>
<path d="M4.35352 15.625C5.44658 15.625 6.33268 14.7389 6.33268 13.6458C6.33268 12.5528 5.44658 11.6667 4.35352 11.6667C3.26045 11.6667 2.37435 12.5528 2.37435 13.6458C2.37435 14.7389 3.26045 15.625 4.35352 15.625Z" fill="#44C749" fill-opacity="0.15"/>
<path d="M14.6452 15.625C15.7382 15.625 16.6244 14.7389 16.6244 13.6458C16.6244 12.5528 15.7382 11.6667 14.6452 11.6667C13.5521 11.6667 12.666 12.5528 12.666 13.6458C12.666 14.7389 13.5521 15.625 14.6452 15.625Z" fill="#44C749" fill-opacity="0.15"/>
<path d="M12.666 11.6667V1.375H0.791016V11.6667H12.666ZM12.666 11.6667H18.2077V7.70833L15.8327 5.33333H12.666V11.6667ZM6.33268 13.6458C6.33268 14.7389 5.44658 15.625 4.35352 15.625C3.26045 15.625 2.37435 14.7389 2.37435 13.6458C2.37435 12.5528 3.26045 11.6667 4.35352 11.6667C5.44658 11.6667 6.33268 12.5528 6.33268 13.6458ZM16.6244 13.6458C16.6244 14.7389 15.7382 15.625 14.6452 15.625C13.5521 15.625 12.666 14.7389 12.666 13.6458C12.666 12.5528 13.5521 11.6667 14.6452 11.6667C15.7382 11.6667 16.6244 12.5528 16.6244 13.6458Z" stroke="#4CAF50" stroke-linecap="round" stroke-linejoin="round"/>
</svg>
